<svg width="12" height="12" viewBox="0 0 12 12" fill="none" xmlns="http://www.w3.org/2000/svg">
<path d="M11.1177 9.13257C11.696 8.19028 12.0015 7.10593 12 6.00028C12.0015 4.8946 11.6961 3.81006 11.1177 2.86773L11.1144 2.86247C10.5778 1.98784 9.82588 1.26544 8.93047 0.764294C8.03505 0.263146 7.02608 0 5.99996 0C4.97385 0 3.96488 0.263146 3.06946 0.764294C2.17405 1.26544 1.42212 1.98784 0.885513 2.86247L0.882277 2.86773C0.305317 3.81069 0 4.89468 0 6.00015C0 7.10562 0.305317 8.18961 0.882277 9.13257L0.885648 9.13796C1.42227 10.0126 2.17421 10.7349 3.06961 11.236C3.96502 11.7371 4.97398 12.0003 6.00007 12.0003C7.02616 12.0002 8.03511 11.7371 8.9305 11.236C9.8259 10.7348 10.5778 10.0124 11.1144 9.13783L11.1177 9.13257ZM6.76689 10.9718C6.65253 11.0822 6.52091 11.1731 6.37722 11.2409C6.25932 11.297 6.13043 11.326 5.9999 11.326C5.86936 11.326 5.74047 11.297 5.62257 11.2409C5.34921 11.1013 5.1152 10.8954 4.94194 10.642C4.58811 10.1307 4.32591 9.5617 4.16706 8.96052C4.7774 8.92295 5.38837 8.9038 5.99996 8.90308C6.61129 8.90308 7.22231 8.92223 7.83301 8.96052C7.74506 9.26961 7.63521 9.57204 7.50429 9.86552C7.33189 10.2783 7.08152 10.6539 6.76689 10.9718ZM0.685826 6.33723H3.10593C3.1217 7.01252 3.19491 7.68524 3.32476 8.34811C2.66318 8.40636 2.00332 8.48636 1.34516 8.58812C0.959703 7.89662 0.734388 7.12741 0.685826 6.33723ZM1.34516 3.41232C2.00305 3.51425 2.66314 3.59425 3.32543 3.65232C3.19535 4.31512 3.12201 4.98781 3.1062 5.66307H0.685826C0.734408 4.87293 0.959723 4.10378 1.34516 3.41232ZM5.23304 1.02848C5.34739 0.918135 5.47901 0.827227 5.6227 0.759359C5.7406 0.703341 5.8695 0.674277 6.00003 0.674277C6.13056 0.674277 6.25946 0.703341 6.37736 0.759359C6.65072 0.898983 6.88473 1.1049 7.05799 1.35828C7.41181 1.86962 7.67401 2.43859 7.83287 3.03977C7.22253 3.07735 6.61156 3.09649 5.99996 3.09721C5.38864 3.09721 4.77762 3.07807 4.16692 3.03977C4.25487 2.73069 4.36472 2.42826 4.49564 2.13478C4.66804 1.72204 4.91841 1.34642 5.23304 1.02848ZM11.3141 5.66307H8.894C8.87822 4.98778 8.80502 4.31506 8.67517 3.65218C9.33675 3.59393 9.99661 3.51393 10.6548 3.41218C11.0402 4.10368 11.2655 4.87289 11.3141 5.66307ZM4.00283 8.29567C3.87101 7.6507 3.79656 6.99533 3.78036 6.33723H8.2197C8.20366 6.99536 8.12935 7.65078 7.99764 8.2958C7.33247 8.25211 6.66657 8.22982 5.99996 8.22892C5.33389 8.22892 4.66818 8.25117 4.00283 8.29567ZM7.9971 3.70463C8.12892 4.3496 8.20337 5.00497 8.21957 5.66307H3.78036C3.7964 5.00493 3.87072 4.34952 4.00243 3.7045C4.6676 3.74818 5.33349 3.77047 6.0001 3.77137C6.66617 3.77137 7.33188 3.74908 7.99723 3.7045L7.9971 3.70463ZM8.89373 6.33723H11.3141C11.2655 7.12737 11.0402 7.89652 10.6548 8.58798C9.99679 8.48605 9.3367 8.40605 8.67449 8.34798C8.80458 7.68518 8.87792 7.01249 8.89373 6.33723ZM10.2505 2.79182C9.67526 2.87478 9.09832 2.94049 8.51971 2.98894C8.41572 2.60171 8.28161 2.2232 8.11858 1.85689C7.96972 1.51982 7.78241 1.20108 7.56038 0.907C8.63332 1.23608 9.57486 1.89575 10.2505 2.79182ZM2.2341 2.23415C2.8496 1.61806 3.60683 1.16236 4.43942 0.907C4.42674 0.92345 4.4138 0.93909 4.40139 0.955674C3.97344 1.57171 3.6617 2.26079 3.48157 2.98894C2.90287 2.93995 2.32552 2.87425 1.74952 2.79182C1.89805 2.59502 2.05996 2.4087 2.2341 2.23415ZM1.74952 9.20848C2.32471 9.12551 2.90166 9.0598 3.48036 9.01135C3.58434 9.39859 3.71846 9.77709 3.88148 10.1434C4.03035 10.4805 4.21766 10.7992 4.43969 11.0933C3.36674 10.7642 2.42521 10.1045 1.74952 9.20848ZM9.7661 9.76614C9.1506 10.3822 8.39337 10.8379 7.56078 11.0933C7.57345 11.0768 7.5864 11.0612 7.5988 11.0446C8.02676 10.4286 8.3385 9.7395 8.51863 9.01135C9.09733 9.06034 9.67468 9.12605 10.2507 9.20848C10.1021 9.40527 9.94024 9.5916 9.7661 9.76614Z" fill="#EA9623"/>
</svg>

